<mxfile host="Electron" agent="Mozilla/5.0 (Windows NT 10.0; Win64; x64) AppleWebKit/537.36 (KHTML, like Gecko) draw.io/26.0.16 Chrome/132.0.6834.196 Electron/34.2.0 Safari/537.36" version="26.0.16">
  <diagram name="Page-1" id="VghXr3DV2tmhOhi8Gk_4">
    <mxGraphModel dx="1182" dy="482" grid="0" gridSize="10" guides="1" tooltips="1" connect="1" arrows="1" fold="1" page="1" pageScale="1" pageWidth="850" pageHeight="1100" math="0" shadow="0">
      <root>
        <mxCell id="0" />
        <mxCell id="1" parent="0" />
        <mxCell id="mQDamdUsFG1WEKTS0zRD-16" style="edgeStyle=orthogonalEdgeStyle;rounded=0;orthogonalLoop=1;jettySize=auto;html=1;entryX=0;entryY=0.5;entryDx=0;entryDy=0;" edge="1" parent="1" source="FQs-gukBbYW2bG0p04tq-2" target="mQDamdUsFG1WEKTS0zRD-9">
          <mxGeometry relative="1" as="geometry" />
        </mxCell>
        <mxCell id="FQs-gukBbYW2bG0p04tq-2" value="Клик" style="rounded=0;whiteSpace=wrap;html=1;" parent="1" vertex="1">
          <mxGeometry x="373" y="487" width="93" height="60" as="geometry" />
        </mxCell>
        <mxCell id="mQDamdUsFG1WEKTS0zRD-12" style="edgeStyle=orthogonalEdgeStyle;rounded=0;orthogonalLoop=1;jettySize=auto;html=1;entryX=0;entryY=0.5;entryDx=0;entryDy=0;" edge="1" parent="1" source="mQDamdUsFG1WEKTS0zRD-8" target="FQs-gukBbYW2bG0p04tq-2">
          <mxGeometry relative="1" as="geometry" />
        </mxCell>
        <mxCell id="mQDamdUsFG1WEKTS0zRD-8" value="Ввод" style="rounded=0;whiteSpace=wrap;html=1;" vertex="1" parent="1">
          <mxGeometry x="221" y="487" width="93" height="60" as="geometry" />
        </mxCell>
        <mxCell id="mQDamdUsFG1WEKTS0zRD-17" style="edgeStyle=orthogonalEdgeStyle;rounded=0;orthogonalLoop=1;jettySize=auto;html=1;entryX=0;entryY=0.5;entryDx=0;entryDy=0;" edge="1" parent="1" source="mQDamdUsFG1WEKTS0zRD-9" target="mQDamdUsFG1WEKTS0zRD-14">
          <mxGeometry relative="1" as="geometry" />
        </mxCell>
        <mxCell id="mQDamdUsFG1WEKTS0zRD-9" value="Нажатие &quot;Esc&quot;" style="rounded=0;whiteSpace=wrap;html=1;" vertex="1" parent="1">
          <mxGeometry x="525" y="487" width="93" height="60" as="geometry" />
        </mxCell>
        <mxCell id="mQDamdUsFG1WEKTS0zRD-14" value="..." style="rounded=0;whiteSpace=wrap;html=1;" vertex="1" parent="1">
          <mxGeometry x="677" y="487" width="93" height="60" as="geometry" />
        </mxCell>
      </root>
    </mxGraphModel>
  </diagram>
</mxfile>
